<svg xmlns="http://www.w3.org/2000/svg" viewBox="0 0 121.42 121.42">
  <defs>
    <style>
      .cls-1 {
        fill: #dd9731;
      }
    </style>
  </defs>
  <g id="Capa_2" data-name="Capa 2">
    <g id="Capa_1-2" data-name="Capa 1">
      <path class="cls-1" d="M96.42,0H25A25,25,0,0,0,0,25V96.42a25,25,0,0,0,25,25H96.42a25,25,0,0,0,25-25V25A25,25,0,0,0,96.42,0ZM72,82.78c-6,5.93-11.9,12-17.92,18a22.58,22.58,0,0,1-19.29,6.7A22.83,22.83,0,0,1,15.17,89.15c-1.58-8.23.75-15.24,6.55-21.16,3.07-3.14,6.19-6.23,9.28-9.35.92-.93,1.91-1.72,3.31-1.26s1.83,1.57,2.11,3a20,20,0,0,0,2.09,6.19A1,1,0,0,1,38.28,68q-3.78,3.7-7.49,7.48a14.33,14.33,0,0,0-4.05,7.13,11.28,11.28,0,0,0,8.81,12.95,11.57,11.57,0,0,0,10.67-3.5q9.21-9.22,18.3-18.56c4-4.06,3.83-10.45,1.27-15.14-.41-.75-.79-.58-1.35-.08-1.11,1-2.27,2-3.94,1.57-2-.54-3-2.35-2.8-4.77A7.46,7.46,0,0,1,59,51.33a18.6,18.6,0,0,1,5-4.66,5.14,5.14,0,0,1,5.12-.32c3.77,1.6,5.9,4.74,7.63,8.21a21.22,21.22,0,0,1,2.34,9.63C79.07,72.11,76.91,78,72,82.78ZM99.94,53.89c-3.75,3.74-7.5,7.47-11.21,11.25a3,3,0,0,1-3.39,1c-1.19-.43-1.6-1.44-1.78-2.74a22.91,22.91,0,0,0-1.84-7c-.32-.67,0-1,.36-1.36,3.32-3.39,6.82-6.62,9.94-10.2a11,11,0,0,0,2.14-11.78,11.06,11.06,0,0,0-9.37-7.38,11.51,11.51,0,0,0-10.16,3.47Q65,38.86,55.47,48.64c-4.74,4.86-3.13,14.19,2.54,17,3.34,1.63,3.83,4.19,1.73,7.33s-5.43,4-9,2.06c-3.83-2-6.17-5.46-7.77-9.3-3.87-9.29-2.47-17.85,4.27-25.34,6.23-6.93,13-13.4,19.65-19.88a23,23,0,0,1,18.43-6.62,23.47,23.47,0,0,1,20.9,18.24,22.49,22.49,0,0,1,.53,5.23A22.56,22.56,0,0,1,99.94,53.89Z"/>
    </g>
  </g>
</svg>
