<svg xmlns="http://www.w3.org/2000/svg" viewBox="0 0 631.99 251.41">
  <defs>
    <style>
      .cls-1 {
        fill: #dd9731;
      }

      .cls-2 {
        fill: #f7f7f7;
      }
    </style>
  </defs>
  <g id="Capa_2" data-name="Capa 2">
    <g id="Capa_1-2" data-name="Capa 1">
      <g>
        <path class="cls-1" d="M189.09.22c-19-1.49-35.79,4.56-49.37,17.73C121.81,35.32,103.78,52.63,87.09,71.2c-18,20.07-21.8,43-11.42,67.86C80,149.35,86.22,158.48,96.49,164c9.62,5.17,18.39,3.13,24.18-5.53,5.62-8.41,4.3-15.25-4.66-19.64-15.18-7.44-19.48-32.43-6.77-45.45q25.52-26.15,51.31-52c7.44-7.41,16.52-10.8,27.2-9.29,12.24,1.73,20.76,8.38,25.11,19.77s2.37,22.23-5.73,31.54c-8.36,9.6-17.74,18.24-26.64,27.33-1,1-1.82,1.83-1,3.62,2.84,5.86,4,12.26,4.93,18.62.49,3.49,1.58,6.19,4.76,7.36,3.47,1.27,6.45,0,9.09-2.74,9.93-10.12,20-20.12,30-30.14,12.27-12.26,18.13-27.12,18.17-44.35a61.06,61.06,0,0,0-1.42-14C239.71,23.21,216.54,2.37,189.09.22Z"/>
        <path class="cls-1" d="M145.89,87.25c-4.77-2-9.49-2-13.72.85-5.09,3.44-9.88,7.34-13.47,12.48a19.94,19.94,0,0,0-3.5,10.08c-.52,6.47,2.24,11.31,7.5,12.76,4.47,1.23,7.57-1.57,10.54-4.19,1.51-1.33,2.53-1.8,3.63.22,6.85,12.55,7.24,29.67-3.41,40.55-16.29,16.62-32.57,33.24-49,49.7-7.85,7.85-17.29,11.34-28.56,9.38-15.54-2.7-26.82-19.43-23.59-34.7,1.61-7.63,5.56-13.69,10.83-19.08q9.93-10.12,20.06-20.05c1.34-1.31,1.61-2.25.62-4-3-5.12-4.47-10.84-5.6-16.55-.74-3.75-1.93-6.7-5.65-7.94s-6.4.88-8.87,3.38c-8.26,8.36-16.62,16.63-24.85,25C3.29,161.08-2.94,179.85,1.29,201.89a61.1,61.1,0,0,0,52.56,49c19.85,2.39,37.38-3.79,51.68-17.93,16.12-15.94,31.83-32.29,48-48.17,13.14-12.91,18.92-28.57,19.06-49.77.24-7-1.73-16.76-6.26-25.82C161.69,100,156,91.53,145.89,87.25Z"/>
        <path class="cls-2" d="M319.34,165.77a27.85,27.85,0,0,0-21.46,6.1c0-9.63-.06-18.84,0-28,0-1.89-.4-2.51-2.39-2.46-5.08.13-10.18.12-15.26-.06-2.13-.08-2.59.65-2.58,2.65q.09,40.69,0,81.39c0,2.16.7,2.58,2.67,2.51,4.35-.14,8.73-.22,13.07,0,3.12.16,5-.38,3.67-4.59,12.6,9.12,28.66,7.85,39.07-2.57,11.25-11.25,12.53-30.53,2.63-43.91A27.18,27.18,0,0,0,319.34,165.77Zm-7.75,46.73c-9.71.23-14.16-4.37-14.37-14.87-.2-9.45,4.25-14.69,12.44-15,8.43-.29,14.78,5,15.29,14.52C325.4,205.41,319.18,212.32,311.59,212.5Z"/>
        <path class="cls-2" d="M422,134.61c6.2,0,6.2,0,6.2-6.22,0-7.59,0-15.18,0-23.25,6.45,9.49,12.58,18.49,18.68,27.51.59.87.81,2,2.23,2,7.31,0,14.62,0,22.16,0a9.47,9.47,0,0,0-.57-1.36c-7.13-10.39-14.23-20.79-21.42-31.14-1.22-1.76-1.21-2.92.37-4.5,3.35-3.32,6.49-6.85,9.67-10.34,4-4.39,8-8.82,12.39-13.7-7.95,0-15.08.07-22.21,0a4.28,4.28,0,0,0-3.67,1.79c-5.75,7.1-11.49,14.21-17.62,21.81,0-16.08-.06-31.58.06-47.07,0-2.41-.57-3-3-2.9-5,.24-9.94.13-14.9,0-1.67,0-2.51.08-2.5,2.2q.12,41.45,0,82.9c0,2,.66,2.41,2.48,2.35C414.23,134.52,418.11,134.6,422,134.61Z"/>
        <path class="cls-2" d="M357.79,131.44c-.12-10.91-.08-21.82,0-32.73,0-5.14,2.47-8.45,7-9a17.42,17.42,0,0,1,8.93.78c3.56,1.48,6,3.81,6,8.09-.05,11.15.09,22.3,0,33.45,0,2.09.5,2.72,2.6,2.66,5.08-.14,10.18-.1,15.27,0,1.63,0,2.35-.23,2.29-2.15-.39-13.56.8-27.15-.67-40.67-.87-8-4.75-14.39-12.51-17.45-10.34-4.08-20.12-3.27-28.88,5.08a15.92,15.92,0,0,1,0-2.45c.52-2.9-.72-3.62-3.5-3.48-4.84.23-9.7.16-14.54,0-2,0-2.4.58-2.39,2.44.06,18.67.09,37.33,0,56,0,2.4.8,2.76,2.9,2.69,4.84-.15,9.71-.24,14.54,0C357.47,134.82,357.82,133.83,357.79,131.44Z"/>
        <path class="cls-2" d="M405.71,188.78c-.13-10.49-6-18.08-15.93-21.58a36,36,0,0,0-11.72-1.71c-8.36-.08-16.41,1.61-23.73,6-1.63,1-1.83,1.81-1,3.41,1.34,2.64,2.52,5.37,3.68,8.1.68,1.6,1.35,2.19,3.19,1.23a42.74,42.74,0,0,1,10.87-3.49c9.16-1.94,14.35,1.28,15.51,9.78-7.35.62-14.73-.44-22.06.84-9.07,1.57-16.37,8.57-16.95,16.67-.69,9.71,4.35,17.52,13.86,20.06,9,2.41,17.94,2.22,25.91-5.18-1.26,4.28.19,5.25,3.69,5a105.83,105.83,0,0,1,12.34,0c1.88.06,2.45-.45,2.43-2.39C405.7,213.24,405.85,201,405.71,188.78ZM384,212.69c-3.15,2.53-10.37,2.78-13.62.4a5.42,5.42,0,0,1-2.49-5.25c.29-2.43,1.89-3.82,4-4.68,2.74-1.14,5.67-.84,8.55-.84a3.47,3.47,0,0,1,.72,0c1.87.43,4.34-1.12,5.58.82C388.13,205.33,386.24,210.91,384,212.69Z"/>
        <path class="cls-2" d="M630.07,182.82c-4.36-10.35-12.17-15.84-23.32-17-11-1.18-20.6,1.35-27.92,9.94-6.56,7.72-8.85,16.73-7.43,26.87,1.27,9.09,5.17,16.45,12.85,21.48,11.81,7.75,32.47,6.74,43.45-1.82,1.88-1.46,2.12-2.61.53-4.55a63.84,63.84,0,0,1-5-7.46c-.82-1.32-1.45-1.49-2.81-.59a25,25,0,0,1-9.94,4c-8.87,1.4-17.48.14-19.08-11.33h2.73c11.51,0,23,0,34.52,0,1.25,0,3.14.8,3.2-1.68C632,194.6,632.49,188.56,630.07,182.82Zm-18.75,7.45c-3-.14-6.05,0-9.08,0s-5.82-.08-8.73,0c-1.68.07-2-.3-1.65-2,1-5.06,5.54-8.57,11.35-8.48,5.48.09,9.1,3.28,9.77,8.57C613.14,189.65,612.94,190.34,611.32,190.27Z"/>
        <path class="cls-2" d="M446.4,190.63c-3.55-1-7.14-1.9-10.72-2.85-1.88-.49-3.48-1.47-3.51-3.56,0-2.37,1.68-3.69,3.79-4.18a10.79,10.79,0,0,1,4.31-.12c4.33.79,8.65,1.73,12.47,4.1,1.21.75,1.91.74,2.51-.87A63.84,63.84,0,0,1,459,175c1-1.91,1.06-2.83-1.11-4.09-8-4.63-16.43-6-25.55-5.06-9.88,1-17.59,7.82-18.55,17-1.07,10.28,3.71,16.55,14.78,19.48,3.45.91,6.9,1.85,10.28,3,2,.66,3.91,1.87,3.85,4.25-.07,2.57-2.22,3.53-4.34,4.19a7.56,7.56,0,0,1-2.52.16,30.71,30.71,0,0,1-16.38-5.73c-1.72-1.2-2.38-.92-3.14.78-1.46,3.27-2.88,6.56-4.57,9.72-1.05,2-.45,2.92,1.24,4a43.7,43.7,0,0,0,23.18,6.57,33.35,33.35,0,0,0,8.63-.75c10.09-2.11,16.58-9,17-18.13C462.18,200.61,456.76,193.6,446.4,190.63Z"/>
        <path class="cls-2" d="M551.83,190.65c-3.43-1-6.86-2-10.33-2.78-2.34-.55-4.28-1.49-4-4.17s2.59-3.53,4.93-3.88a9.87,9.87,0,0,1,3.25.13c4.33.83,8.67,1.65,12.47,4.11,1.19.77,1.94.4,2.5-.9,1.13-2.63,2.26-5.26,3.59-7.79,1.16-2.18,1-3.4-1.42-4.73a39.25,39.25,0,0,0-26.72-4.56C521.31,168.87,517,179.45,520,191.46c1.67,6.65,7.23,9.12,13.21,10.88,4,1.19,8.13,1.84,11.95,3.61a3.63,3.63,0,0,1,2.44,3.62,3.79,3.79,0,0,1-2.61,3.54,11.16,11.16,0,0,1-7.41.51c-4.66-1.13-9.2-2.53-13.07-5.51-1.4-1.08-2.21-.7-2.88.86-1.4,3.27-2.79,6.57-4.44,9.72-1,2-.4,2.91,1.25,4a40.12,40.12,0,0,0,22.64,6.58,37.51,37.51,0,0,0,9-.74c9.65-1.93,16.17-8.83,16.56-17.69C567.06,200.55,562,193.58,551.83,190.65Z"/>
        <path class="cls-2" d="M499.05,190.64c-3.41-1-6.87-1.91-10.32-2.83-2.1-.56-3.86-1.3-3.73-4,.14-2.91,2.35-3.41,4.44-3.91a9.34,9.34,0,0,1,3.61,0c4.25.75,8.44,1.77,12.18,4.06,1.27.78,1.83,1,2.44-.82a34.71,34.71,0,0,1,3.61-7.76c1.78-2.71.53-3.78-1.68-5a39.89,39.89,0,0,0-26.17-4.36c-5.37.89-10.4,3.05-13.61,7.86-7.69,11.49-3,24.19,10.41,28.35,3.74,1.17,7.54,2.13,11.26,3.34a3.93,3.93,0,0,1,3.1,4.24c-.11,2.52-1.8,3.21-3.69,3.77a12.15,12.15,0,0,1-6.08,0,36.93,36.93,0,0,1-14.8-6.7c-1.8,3.89-3.28,7.56-5.17,11-1.4,2.58-.5,3.85,1.68,5.16a41.78,41.78,0,0,0,31.45,5.2c9.88-2.17,15.94-9.32,16.14-18.08C514.33,200.21,509.42,193.78,499.05,190.64Z"/>
        <path class="cls-2" d="M280.34,134.66c4.84-.14,9.7-.19,14.53,0,2.4.1,3-.51,3-3-.14-13.68-.07-27.36-.07-41s-.05-27.36.05-41c0-1.85-.23-2.5-2.28-2.43-5.08.18-10.17.16-15.26,0-2-.07-2.66.4-2.65,2.53q.1,41.22,0,82.46C277.67,134.32,278.38,134.72,280.34,134.66Z"/>
        <path class="cls-2" d="M325.72,73.54c-5.09.11-10.19.18-15.27,0-2.4-.09-3,.63-3,3,.14,9.2.06,18.41.06,27.62s.06,18.66-.05,28c0,2.07.56,2.61,2.61,2.54,5.2-.16,10.42-.13,15.62,0,1.76,0,2.23-.45,2.22-2.19q-.09-28.35,0-56.7C328,74,327.45,73.5,325.72,73.54Z"/>
        <path class="cls-2" d="M483.45,135.41a11,11,0,0,0,11-11.29c0-6.56-4.52-11.34-10.82-11.34a11.1,11.1,0,0,0-11,11.33C472.73,130.15,477.69,135.35,483.45,135.41Z"/>
        <path class="cls-2" d="M317.54,67A11.23,11.23,0,0,0,328.63,55.7c-.12-6.09-5-11.17-10.86-11.22a10.94,10.94,0,0,0-10.95,11C306.73,61.78,311.55,67,317.54,67Z"/>
      </g>
    </g>
  </g>
</svg>
